#!OML:ASF F:\VICON\USERDATA\INSTALL\Justin_Nancy\Justin_Nancy.ASF
:FULLY-SPECIFIED
:DEGREES
397
root -16.8531 17.2023 19.6332 -2.90813 -46.4679 6.03983
lowerback 5.20619 -1.78709 -4.72746
upperback 0.587602 -2.62218 1.45821
thorax -2.03107 -1.27035 4.33694
lowerneck -16.6517 -3.52325 -8.58622
upperneck 22.1139 -3.85069 4.65346
head 10.0579 -2.01231 2.54243
rclavicle 2.5345e-015 -1.11319e-014
rhumerus -36.8636 -21.6163 -74.6348
rradius 28.2571
rwrist 9.42436
rhand -11.5504 16.7271
rfingers 7.12502
rthumb 14.4902 -12.7469
lclavicle 2.5345e-015 -1.11319e-014
lhumerus -23.9471 6.08486 83.184
lradius 30.6563
lwrist -6.99009
lhand -17.7879 23.8673
lfingers 7.12502
lthumb 8.47506 53.6772
rfemur -25.5055 1.65743 16.3002
rtibia 7.07734
rfoot -3.97591 -9.01358
rtoes -17.3287
lfemur 2.77276 0.62016 -29.3544
ltibia 20.7036
lfoot -18.5207 0.546058
ltoes 1.17243
398
root -16.9627 17.1944 19.7234 -3.07535 -46.2603 6.80436
lowerback 4.91258 -1.90956 -5.24261
upperback 0.464296 -2.80389 1.30765
thorax -1.95736 -1.35645 4.47137
lowerneck -16.6674 -3.4731 -8.39183
upperneck 22.0372 -3.78344 4.47265
head 10.0204 -1.98417 2.45427
rclavicle -4.9895e-014 8.74653e-015
rhumerus -36.5893 -21.8134 -74.5489
rradius 26.9795
rwrist 9.439
rhand -12.0247 17.2315
rfingers 7.12502
rthumb 14.0332 -12.2747
lclavicle -4.9895e-014 8.74653e-015
lhumerus -23.9417 5.10402 83.4367
lradius 30.7937
lwrist -8.43748
lhand -19.5598 25.4089
lfingers 7.12502
lthumb 6.76475 55.2809
rfemur -22.6626 1.60431 15.5715
rtibia -4.13472e-014
rfoot -2.09675 -8.56344
rtoes -18.4795
lfemur 2.95627 0.700409 -29.8334
ltibia 20.5012
lfoot -18.5652 0.331602
ltoes -0.37394
399
root -17.0774 17.1752 19.8121 -3.00735 -46.076 6.99856
lowerback 4.75963 -1.99625 -5.45482
upperback 0.394847 -2.92303 1.3298
thorax -1.91813 -1.41376 4.61513
lowerneck -16.6631 -3.47399 -8.66567
upperneck 22.1176 -3.76915 4.6948
head 10.0578 -1.97674 2.58177
rclavicle -4.7112e-014 9.54166e-015
rhumerus -36.7752 -22.1003 -74.2924
rradius 27.4339
rwrist 9.30086
rhand -12.3321 15.802
rfingers 7.12502
rthumb 13.7369 -13.7245
lclavicle -4.7112e-014 9.54166e-015
lhumerus -23.8372 5.09158 83.4636
lradius 30.898
lwrist -8.55487
lhand -19.5848 25.3691
lfingers 7.12502
lthumb 6.74067 55.2418
rfemur -23.1632 1.62308 15.375
rtibia -1.90833e-014
rfoot -2.80672 -8.93389
rtoes -19.7804
lfemur 3.47929 0.71519 -29.8827
ltibia 20.0877
lfoot -18.4028 0.115756
ltoes -1.57904
400
root -17.192 17.1409 19.9049 -2.8682 -46.0766 6.90354
lowerback 4.76893 -1.96012 -5.35444
upperback 0.380683 -2.8712 1.2843
thorax -1.95142 -1.38729 4.50943
lowerneck -16.9101 -3.57183 -8.48218
upperneck 22.3353 -3.92127 4.60871
head 10.1881 -2.04081 2.49905
rclavicle -4.47762e-014 -7.95139e-016
rhumerus -36.9275 -22.3923 -74.3489
rradius 27.7055
rwrist 9.09569
rhand -12.8369 14.1796
rfingers 7.12502
rthumb 13.2504 -15.3792
lclavicle -4.47762e-014 -7.95139e-016
lhumerus -23.5886 5.13973 83.2249
lradius 30.9464
lwrist -8.44277
lhand -18.9158 24.7721
lfingers 7.12502
lthumb 7.38643 54.6232
rfemur -23.8619 1.95569 15.6627
rtibia -6.36111e-014
rfoot -0.614905 -9.94477
rtoes -30.1575
lfemur 4.07288 0.577049 -29.7772
ltibia 19.8804
lfoot -18.3945 0.129691
ltoes -2.4311
401
root -17.3016 17.1481 19.994 -2.91306 -46.1883 7.00026
lowerback 4.85279 -1.88192 -5.36037
upperback 0.368377 -2.77479 1.16158
thorax -2.02824 -1.33656 4.38424
lowerneck -17.1699 -3.65657 -8.21694
upperneck 22.4604 -4.08278 4.5577
head 10.2866 -2.09589 2.41235
rclavicle -4.68138e-014 9.54166e-015
rhumerus -37.3138 -23.382 -73.7423
rradius 27.6028
rwrist 11.1168
rhand -11.6027 14.5123
rfingers 7.12502
rthumb 14.4398 -14.9654
lclavicle -4.68138e-014 9.54166e-015
lhumerus -23.3809 4.9407 83.0207
lradius 31.0662
lwrist -8.12032
lhand -18.8505 24.6883
lfingers 7.12502
lthumb 7.44944 54.5371
rfemur -23.7256 2.28013 15.5524
rtibia -2.22639e-014
rfoot -0.868463 -10.5511
rtoes -25.9105
lfemur 4.63507 0.383523 -29.8357
ltibia 19.7155
lfoot -18.3202 0.263978
ltoes -2.81622
402
root -17.4145 17.1442 20.0848 -3.06445 -46.2445 7.20673
lowerback 4.93804 -1.87442 -5.56271
upperback 0.30819 -2.78148 1.18044
thorax -2.12713 -1.33339 4.52365
lowerneck -16.8482 -3.63086 -8.43827
upperneck 22.199 -4.04185 4.70813
head 10.1371 -2.07975 2.50944
rclavicle -1.8487e-014 4.77083e-015
rhumerus -37.7742 -24.5165 -72.4773
rradius 27.0864
rwrist 14.0696
rhand -10.024 16.3385
rfingers 7.12502
rthumb 15.9606 -13.024
lclavicle -1.8487e-014 4.77083e-015
lhumerus -23.3762 5.37827 82.9772
lradius 31.1022
lwrist -8.32968
lhand -18.6984 24.5157
lfingers 7.12502
lthumb 7.59622 54.3593
rfemur -23.5363 2.55513 15.3649
rtibia 3.81667e-014
rfoot -0.639341 -10.6454
rtoes -21.6741
lfemur 5.2078 0.244106 -29.932
ltibia 19.5781
lfoot -18.2195 0.125502
ltoes -2.65706
